<svg id="圖層_4" data-name="圖層 4" xmlns="http://www.w3.org/2000/svg" viewBox="0 0 101.11 190.54"><defs><style>.cls-1{fill:#bbeae6;}.cls-2{fill:#7c695b;}.cls-3{fill:#e8acc3;}.cls-4,.cls-5{fill:#e5d873;}.cls-5{stroke:#7c695b;stroke-linecap:round;stroke-linejoin:round;stroke-width:3px;}.cls-6{fill:#c6ace5;}</style></defs><title>搖鈴</title><rect class="cls-1" x="-2130.14" y="402.32" width="25.53" height="106.72" rx="12" transform="translate(2192.45 284.37) rotate(16.05)"/><path class="cls-2" d="M-2128.08,509.15a13.32,13.32,0,0,1-3.72-.53l-1.47-.42a13.53,13.53,0,0,1-9.25-16.71l22.87-79.5a13.5,13.5,0,0,1,16.7-9.24l1.47.42a13.36,13.36,0,0,1,8.07,6.45,13.4,13.4,0,0,1,1.18,10.25l-22.87,79.51A13.52,13.52,0,0,1-2128.08,509.15Zm21.41-103.93a10.44,10.44,0,0,0-5.08,1.33,10.4,10.4,0,0,0-5,6.27l-22.86,79.5a10.51,10.51,0,0,0,7.19,13l1.47.43h0a10.52,10.52,0,0,0,13-7.19l22.86-79.5a10.39,10.39,0,0,0-.91-8,10.43,10.43,0,0,0-6.27-5l-1.48-.42A10.56,10.56,0,0,0-2106.67,405.22Z" transform="translate(2148.98 -318.61)"/><circle class="cls-3" cx="50.59" cy="64.33" r="49.02"/><path class="cls-2" d="M-2098.4,433.46a50.58,50.58,0,0,1-50.52-50.52,50.58,50.58,0,0,1,50.52-50.52,50.58,50.58,0,0,1,50.53,50.52A50.58,50.58,0,0,1-2098.4,433.46Zm0-98a47.57,47.57,0,0,0-47.52,47.52,47.58,47.58,0,0,0,47.52,47.52,47.58,47.58,0,0,0,47.53-47.52A47.57,47.57,0,0,0-2098.4,335.42Z" transform="translate(2148.98 -318.61)"/><circle class="cls-4" cx="64.29" cy="9.16" r="7.66"/><path class="cls-2" d="M-2084.69,336.93a9.17,9.17,0,0,1-9.16-9.16,9.17,9.17,0,0,1,9.16-9.16,9.17,9.17,0,0,1,9.16,9.16A9.17,9.17,0,0,1-2084.69,336.93Zm0-15.32a6.16,6.16,0,0,0-6.16,6.16,6.17,6.17,0,0,0,6.16,6.16,6.18,6.18,0,0,0,6.16-6.16A6.17,6.17,0,0,0-2084.69,321.61Z" transform="translate(2148.98 -318.61)"/><path class="cls-5" d="M-2132.44,346.41" transform="translate(2148.98 -318.61)"/><path class="cls-6" d="M-2137.46,353s23.49,36.43,87.32,27.07a38.82,38.82,0,0,1-7.32,30s-62.81,7.53-90-27.13C-2147.42,382.94-2148.86,369.38-2137.46,353Z" transform="translate(2148.98 -318.61)"/><path class="cls-2" d="M-2072.51,412.31c-20.57,0-56.79-3.81-76.09-28.45a1.5,1.5,0,0,1-.31-.76c-.06-.58-1.37-14.3,10.22-30.91a1.5,1.5,0,0,1,1.26-.65,1.5,1.5,0,0,1,1.23.69h0c.06.09,5.93,9,19.37,16.65,12.42,7.07,34,14.5,66.47,9.74a1.5,1.5,0,0,1,1.68,1.16,39.94,39.94,0,0,1-7.59,31.2,1.47,1.47,0,0,1-1,.57A134.9,134.9,0,0,1-2072.51,412.31Zm-73.44-29.94c25,31.37,81.13,26.91,87.69,26.27a37.61,37.61,0,0,0,6.88-26.84c-32.59,4.46-54.45-3.16-67.1-10.41a66.17,66.17,0,0,1-18.93-15.74C-2146.1,369-2146.06,380.14-2145.95,382.37Z" transform="translate(2148.98 -318.61)"/></svg>