<svg id="圖層_4" data-name="圖層 4" xmlns="http://www.w3.org/2000/svg" viewBox="0 0 146.17 187.65"><defs><style>.cls-1{fill:#aa907b;}.cls-2{fill:#8e7866;}.cls-3{fill:#d19c78;}.cls-4{fill:#7c695b;}.cls-5{fill:#d1a3b3;}</style></defs><title>泰迪</title><path class="cls-1" d="M-1084.69,467.15c-2-15-24.17-5.11-24.17-5.11l-11.24-6.47c-2.35-1.24-3.41-5-3.84-9.06,2.65,1.52,5.27,2.82,7.43,3.82,6.38,3,14,4.81,20.32,1.65,3.84-1.92,13.25-15.91,7.16-19.34-1.08-.61-4.62-.69-5.87-.77-14.61-.89-21.27-12.21-30.64-21.37a31.69,31.69,0,0,0,8.28-2.61c8.13-3.77,12.65-9.45,14.4-18.18,2.55-12.74,1.95-27.78-3.12-40.18a13.18,13.18,0,0,0,9.11-3.33c6-5.51,5.54-15.89-1.11-23.18s-16.94-8.74-23-3.23a12.93,12.93,0,0,0-3.94,7.25,48.45,48.45,0,0,0-6.83-3.53c-10.94-4.59-24.52-5.21-36.22-3.88a53.7,53.7,0,0,0-25.82,9.9A13.33,13.33,0,0,0-1198,320c-6-5.52-16.33-4.07-23,3.22s-7.14,17.67-1.1,23.18c3.43,3.13,8.22,4,12.94,2.87-5.18,12.45-5.8,27.63-3.23,40.47,1.74,8.73,7.09,14.41,15.21,18.18a29.36,29.36,0,0,0,12.84,3l.1.23c-9.32,9.14-16,20.38-30.54,21.27-1.25.07-4.78.15-5.87.76-6.09,3.43,3.33,17.42,7.16,19.34,6.29,3.16,13.94,1.32,20.32-1.65,1.37-.63,2.91-1.38,4.53-2.23-.55,3.18-1.61,5.92-3.54,6.94l-11.24,6.47s-22.12-9.87-24.17,5.11c0,0-2,40.51,27.92,33,0,0,18.38-8.51,23.49-15.32,0,0,6.23,2.41,19.87,1.4,13.86,1.07,20.18-1.38,20.18-1.38,5.11,6.81,23.49,15.32,23.49,15.32C-1082.65,507.66-1084.69,467.15-1084.69,467.15Z" transform="translate(1229.33 -314.94)"/><path class="cls-2" d="M-1105.66,502.59a30,30,0,0,1-7.31-1,1.43,1.43,0,0,1-.27-.09c-.73-.34-17.39-8.1-23.38-14.94-2.37.66-8.72,2-19.67,1.14-10.73.79-17-.51-19.34-1.17-6,6.85-22.65,14.61-23.38,14.95a1.43,1.43,0,0,1-.27.09c-8,2-14.51.92-19.51-3.19C-1230,489.16-1229.1,468-1229,467.05a.62.62,0,0,1,0-.13c.51-3.75,2.21-6.46,5-8,6.67-3.71,17.59.28,20.5,1.47l10.59-6.1a5,5,0,0,0,2-2.82l-1.62.78c-8.45,3.92-15.93,4.49-21.63,1.63-3.56-1.79-9.84-10.68-10-16.63a5.56,5.56,0,0,1,2.76-5.37c1.15-.64,3.43-.8,5.87-.92l.65,0c10.91-.67,17.24-7.58,23.94-14.9,1.13-1.24,2.29-2.51,3.49-3.76a31.67,31.67,0,0,1-10.37-3c-9-4.19-14.3-10.49-16-19.24-2.67-13.35-1.81-27.35,2.35-38.86a14.94,14.94,0,0,1-11.6-3.67,15,15,0,0,1-4.7-12.1,21.25,21.25,0,0,1,5.71-13.2,21.24,21.24,0,0,1,12.62-6.89,15.05,15.05,0,0,1,12.48,3.57,14.5,14.5,0,0,1,4.4,8,55.68,55.68,0,0,1,24.45-8.72c8.07-.92,23.59-1.62,37,4a48.14,48.14,0,0,1,5.3,2.6,14.07,14.07,0,0,1,3.88-6,15,15,0,0,1,12.48-3.57,21.24,21.24,0,0,1,12.62,6.89c7.2,7.89,7.65,19.24,1,25.3a14.27,14.27,0,0,1-8,3.6c4.22,11.56,5.12,25.68,2.44,39.1-1.83,9.16-6.68,15.27-15.24,19.24a34.66,34.66,0,0,1-5.91,2.15c1.3,1.35,2.56,2.73,3.8,4.08,6.7,7.32,13,14.23,23.93,14.9l.65,0c2.44.12,4.73.28,5.87.92a5.55,5.55,0,0,1,2.76,5.36c-.14,5.95-6.42,14.85-10,16.64-5.71,2.86-13.19,2.29-21.63-1.64q-2.53-1.17-4.85-2.4c.57,2.64,1.46,4.36,2.59,5l10.64,6.12c2.91-1.19,13.83-5.18,20.5-1.47,2.84,1.58,4.54,4.29,5,8,0,.05,0,.09,0,.13,0,.9,1,22.12-10.27,31.36A18.64,18.64,0,0,1-1105.66,502.59Zm-6.44-3.84c6.91,1.7,12.54.81,16.73-2.63,9.81-8.06,9.23-27.6,9.18-28.84-.39-2.77-1.55-4.65-3.53-5.76-5.22-2.9-15.15.38-18.53,1.89a1.49,1.49,0,0,1-1.36-.07l-11.24-6.47c-2.48-1.31-4-4.66-4.58-10.2a1.49,1.49,0,0,1,.68-1.42,1.49,1.49,0,0,1,1.56,0c2.22,1.27,4.68,2.54,7.31,3.76,5.29,2.46,12.88,4.75,19,1.67,2.48-1.24,8.21-9.16,8.33-14,0-1.75-.68-2.36-1.23-2.67a16.5,16.5,0,0,0-4.54-.54l-.69,0c-12.12-.74-19.16-8.43-26-15.87-1.81-2-3.68-4-5.63-5.93a1.48,1.48,0,0,1-.38-1.52,1.5,1.5,0,0,1,1.18-1,30.05,30.05,0,0,0,7.9-2.49c7.72-3.58,11.91-8.86,13.56-17.11,2.68-13.42,1.55-28.12-3-39.32a1.51,1.51,0,0,1,.14-1.41A1.51,1.51,0,0,1-1106,348h.09a11.62,11.62,0,0,0,8-2.94c5.42-4.94,4.88-14.39-1.21-21.06a18.24,18.24,0,0,0-10.82-5.94,12.1,12.1,0,0,0-10,2.81,11.47,11.47,0,0,0-3.48,6.42,1.51,1.51,0,0,1-.87,1.09,1.51,1.51,0,0,1-1.4-.1,46.87,46.87,0,0,0-6.6-3.42c-12.76-5.34-27.71-4.65-35.48-3.77a52.12,52.12,0,0,0-25.1,9.61,1.48,1.48,0,0,1-1.54.15,1.5,1.5,0,0,1-.85-1.3,11.91,11.91,0,0,0-3.72-8.51,12.09,12.09,0,0,0-10-2.81,18.27,18.27,0,0,0-10.82,5.94,18.27,18.27,0,0,0-4.92,11.32,12.08,12.08,0,0,0,3.72,9.75c2.93,2.67,7.15,3.58,11.57,2.51a1.5,1.5,0,0,1,1.5.48,1.51,1.51,0,0,1,.24,1.55c-4.68,11.25-5.85,26.06-3.14,39.61,1.55,7.75,6.25,13.35,14.37,17.11a28.09,28.09,0,0,0,12.22,2.86,1.53,1.53,0,0,1,1.37.9l.1.23a1.49,1.49,0,0,1-.33,1.67c-1.92,1.88-3.75,3.88-5.53,5.82-6.81,7.44-13.85,15.13-26,15.87l-.69,0a16.58,16.58,0,0,0-4.54.54c-.54.31-1.27.92-1.23,2.67.12,4.86,5.86,12.78,8.33,14,6.14,3.09,13.73.8,19-1.67,1.52-.7,3-1.44,4.46-2.2a1.48,1.48,0,0,1,1.58.12,1.47,1.47,0,0,1,.6,1.47c-.74,4.24-2.15,6.86-4.32,8l-11.19,6.44a1.48,1.48,0,0,1-1.36.07c-.12-.05-12.26-5.38-18.53-1.89-2,1.11-3.14,3-3.53,5.76,0,1.24-.63,20.78,9.18,28.84,4.19,3.44,9.82,4.33,16.73,2.63,1.63-.77,18.19-8.66,22.8-14.8a1.5,1.5,0,0,1,1.74-.5s6.18,2.27,19.21,1.3h.23c13.26,1,19.48-1.26,19.54-1.28a1.5,1.5,0,0,1,1.73.5C-1130.29,490.09-1113.73,498-1112.1,498.75Z" transform="translate(1229.33 -314.94)"/><path class="cls-1" d="M-1121.93,333.06a31.29,31.29,0,0,1,9.65,11.25" transform="translate(1229.33 -314.94)"/><path class="cls-2" d="M-1112.28,345.81a1.5,1.5,0,0,1-1.34-.81,30.06,30.06,0,0,0-9.12-10.68,1.51,1.51,0,0,1-.45-2.07,1.5,1.5,0,0,1,2.07-.45,32.43,32.43,0,0,1,10.17,11.83,1.5,1.5,0,0,1-.65,2A1.51,1.51,0,0,1-1112.28,345.81Z" transform="translate(1229.33 -314.94)"/><path class="cls-1" d="M-1195.77,334.79a31.33,31.33,0,0,0-9.64,11.25" transform="translate(1229.33 -314.94)"/><path class="cls-2" d="M-1205.41,347.54a1.37,1.37,0,0,1-.68-.17,1.49,1.49,0,0,1-.65-2,32.45,32.45,0,0,1,10.17-11.82,1.5,1.5,0,0,1,2.07.45,1.51,1.51,0,0,1-.45,2.07,30,30,0,0,0-9.12,10.68A1.53,1.53,0,0,1-1205.41,347.54Z" transform="translate(1229.33 -314.94)"/><ellipse class="cls-3" cx="-1215.36" cy="479.96" rx="11.04" ry="21.38" transform="translate(1015.08 -674.77) rotate(-18.44)"/><path class="cls-2" d="M-1210.5,502.05c-2.74,0-5.69-1.44-8.53-4.2a35.28,35.28,0,0,1-8.23-13.92,35.17,35.17,0,0,1-1.77-16.07c.79-5.08,3.08-8.49,6.43-9.61s7.23.24,10.91,3.82a35.17,35.17,0,0,1,8.23,13.92h0c4.06,12.17,2,23.45-4.66,25.67A7.38,7.38,0,0,1-1210.5,502.05Zm-9.75-41.17a4.32,4.32,0,0,0-1.4.22c-2.2.74-3.81,3.37-4.42,7.22a32.29,32.29,0,0,0,1.66,14.66,32.29,32.29,0,0,0,7.47,12.72c2.8,2.72,5.66,3.85,7.87,3.12,4.91-1.64,6.17-11.66,2.76-21.88a32.17,32.17,0,0,0-7.47-12.72C-1216,462-1218.3,460.88-1220.25,460.88Z" transform="translate(1229.33 -314.94)"/><ellipse class="cls-3" cx="-1097.74" cy="479.96" rx="21.38" ry="11.04" transform="translate(23.54 -1028.18) rotate(-71.56)"/><path class="cls-2" d="M-1102.6,502.05a7.38,7.38,0,0,1-2.38-.39c-6.67-2.22-8.72-13.5-4.66-25.67h0a35.17,35.17,0,0,1,8.23-13.92c3.68-3.58,7.55-4.93,10.91-3.82s5.64,4.53,6.43,9.61a35.17,35.17,0,0,1-1.77,16.07,35.28,35.28,0,0,1-8.23,13.92C-1096.91,500.61-1099.86,502.05-1102.6,502.05Zm-4.19-25.11c-3.41,10.22-2.15,20.24,2.76,21.88,2.21.73,5.07-.4,7.87-3.12a32.29,32.29,0,0,0,7.47-12.72,32.29,32.29,0,0,0,1.66-14.66c-.61-3.85-2.22-6.48-4.42-7.22s-5.08.4-7.87,3.12a32.17,32.17,0,0,0-7.47,12.72Z" transform="translate(1229.33 -314.94)"/><ellipse class="cls-3" cx="-1096.61" cy="443.58" rx="11.96" ry="5.79" transform="translate(430.4 -1016.23) rotate(-53.4)"/><path class="cls-2" d="M-1101.75,455.29a4.75,4.75,0,0,1-2.89-.9c-3.34-2.48-2.4-9,2.17-15.16h0a21.42,21.42,0,0,1,6.91-6.21c2.77-1.44,5.24-1.53,7-.24,3.34,2.48,2.41,9-2.17,15.15a21.32,21.32,0,0,1-6.91,6.21A8.93,8.93,0,0,1-1101.75,455.29Zm1.69-14.27c-3.57,4.81-4.42,9.75-2.79,11,.73.54,2.15.36,3.79-.5a18.19,18.19,0,0,0,5.89-5.34c3.57-4.8,4.42-9.75,2.79-11-.73-.54-2.15-.36-3.79.5a18.42,18.42,0,0,0-5.89,5.34Z" transform="translate(1229.33 -314.94)"/><ellipse class="cls-3" cx="-1214.23" cy="443.58" rx="5.79" ry="11.96" transform="translate(725.46 -951.41) rotate(-36.6)"/><path class="cls-2" d="M-1209.09,455.29a8.9,8.9,0,0,1-4.08-1.15,21.45,21.45,0,0,1-6.92-6.21c-4.57-6.16-5.5-12.67-2.16-15.15,1.73-1.29,4.2-1.2,7,.24a21.45,21.45,0,0,1,6.92,6.21h0c4.57,6.16,5.5,12.68,2.16,15.16A4.75,4.75,0,0,1-1209.09,455.29Zm-10.27-20.41a1.89,1.89,0,0,0-1.11.3c-1.62,1.21-.78,6.16,2.79,11a18.29,18.29,0,0,0,5.89,5.34c1.64.86,3.06,1,3.8.5,1.62-1.21.78-6.15-2.79-11h0a18.45,18.45,0,0,0-5.9-5.34A6.1,6.1,0,0,0-1219.36,434.88Z" transform="translate(1229.33 -314.94)"/><path class="cls-2" d="M-1172,410.73a1.48,1.48,0,0,1-1.41-1,1.5,1.5,0,0,1,.89-1.93,55.72,55.72,0,0,1,31.94-.2,1.5,1.5,0,0,1,1,1.85,1.51,1.51,0,0,1-1.85,1,53.44,53.44,0,0,0-30.09.13A1.52,1.52,0,0,1-1172,410.73Z" transform="translate(1229.33 -314.94)"/><path class="cls-2" d="M-1188.77,451.24a1.18,1.18,0,0,1-.26,0,1.5,1.5,0,0,1-1.22-1.73c3.89-22.3,6.74-28.65,8.1-31.7l.07-.15a1.5,1.5,0,0,1,2-.75,1.5,1.5,0,0,1,.76,2l-.07.14c-1.32,2.94-4.06,9.06-7.88,31A1.5,1.5,0,0,1-1188.77,451.24Z" transform="translate(1229.33 -314.94)"/><path class="cls-2" d="M-1123.46,450.67a1.5,1.5,0,0,1-1.48-1.24c-3.82-21.93-6.56-28.05-7.88-31l-.06-.14a1.51,1.51,0,0,1,.75-2,1.5,1.5,0,0,1,2,.76l.07.14c1.37,3.06,4.21,9.41,8.1,31.7a1.5,1.5,0,0,1-1.22,1.74Z" transform="translate(1229.33 -314.94)"/><path class="cls-2" d="M-1156.68,410.28h0a.5.5,0,0,1-.49-.51l0-2.5a.49.49,0,0,1,.5-.49h0a.5.5,0,0,1,.5.5l0,2.5A.51.51,0,0,1-1156.68,410.28Z" transform="translate(1229.33 -314.94)"/><path class="cls-2" d="M-1157.28,479.32h0a.5.5,0,0,1-.5-.5l0-4.93a.51.51,0,0,1,.5-.5h0a.49.49,0,0,1,.49.5l0,4.94A.5.5,0,0,1-1157.28,479.32Zm.09-9.86h0a.49.49,0,0,1-.49-.51l0-4.93a.49.49,0,0,1,.5-.49h0a.5.5,0,0,1,.5.5l0,4.93A.51.51,0,0,1-1157.19,469.46Zm.08-9.86h0a.51.51,0,0,1-.5-.51l0-4.93a.51.51,0,0,1,.5-.5h0a.5.5,0,0,1,.49.51l0,4.93A.51.51,0,0,1-1157.11,459.6Zm.09-9.87h0a.49.49,0,0,1-.49-.5l0-4.93a.54.54,0,0,1,.5-.5.5.5,0,0,1,.5.5l0,4.93A.51.51,0,0,1-1157,449.73Zm.08-9.86h0a.51.51,0,0,1-.5-.51l0-4.93a.51.51,0,0,1,.5-.5h0a.5.5,0,0,1,.49.51l0,4.93A.5.5,0,0,1-1156.94,439.87Zm.09-9.87h0a.49.49,0,0,1-.49-.5l0-4.93a.5.5,0,0,1,.5-.5h0a.5.5,0,0,1,.5.51l0,4.93A.51.51,0,0,1-1156.85,430Zm.08-9.86h0a.5.5,0,0,1-.5-.5l0-4.94a.51.51,0,0,1,.5-.49h0a.49.49,0,0,1,.49.5l0,4.93A.5.5,0,0,1-1156.77,420.14Z" transform="translate(1229.33 -314.94)"/><path class="cls-2" d="M-1157.34,486.75h0a.49.49,0,0,1-.49-.5l0-2.5a.52.52,0,0,1,.5-.5.51.51,0,0,1,.5.51l0,2.5A.51.51,0,0,1-1157.34,486.75Z" transform="translate(1229.33 -314.94)"/><ellipse class="cls-4" cx="46.82" cy="53.52" rx="4.34" ry="6.47"/><ellipse class="cls-4" cx="94.8" cy="52.52" rx="4.34" ry="6.47"/><path class="cls-4" d="M-1154.26,384.43a1.5,1.5,0,0,1-1.12-.5l-2.94-3.32-2.72,3.14a1.51,1.51,0,0,1-2.12.15,1.51,1.51,0,0,1-.15-2.12l3.85-4.43a1.53,1.53,0,0,1,1.13-.51h0a1.5,1.5,0,0,1,1.13.51l4.06,4.59a1.5,1.5,0,0,1-.12,2.12A1.51,1.51,0,0,1-1154.26,384.43Z" transform="translate(1229.33 -314.94)"/><path class="cls-2" d="M-1161.27,374.94a.51.51,0,0,1-.5-.44c-.18-1.59-.46-3.24-.8-4.89a.49.49,0,0,1,.38-.59.48.48,0,0,1,.59.39,49.94,49.94,0,0,1,.82,5,.49.49,0,0,1-.43.56Zm-2-9.78a.49.49,0,0,1-.48-.36c-.46-1.54-1-3.13-1.58-4.71a.5.5,0,0,1,.3-.64.49.49,0,0,1,.64.29c.6,1.61,1.13,3.21,1.59,4.78a.5.5,0,0,1-.33.62Zm-3.47-9.38a.51.51,0,0,1-.46-.3c-.65-1.48-1.36-3-2.12-4.5a.5.5,0,0,1,.22-.67.5.5,0,0,1,.67.22c.77,1.52,1.49,3.05,2.15,4.55a.5.5,0,0,1-.26.66A.45.45,0,0,1-1166.78,355.78Zm-4.48-8.94a.49.49,0,0,1-.44-.26c-.8-1.42-1.65-2.86-2.53-4.29a.49.49,0,0,1,.16-.69.51.51,0,0,1,.69.17c.89,1.44,1.75,2.89,2.55,4.32a.49.49,0,0,1-.19.68A.44.44,0,0,1-1171.26,346.84Zm-5.26-8.52a.5.5,0,0,1-.42-.22c-.92-1.36-1.88-2.73-2.86-4.08a.51.51,0,0,1,.11-.7.51.51,0,0,1,.7.11c1,1.36,2,2.74,2.88,4.12a.51.51,0,0,1-.13.69A.5.5,0,0,1-1176.52,338.32Zm-5.89-8.09a.51.51,0,0,1-.4-.2c-1.21-1.54-2.15-2.67-2.68-3.31-.29-.34-.46-.55-.5-.61a.5.5,0,0,1,.14-.7.5.5,0,0,1,.69.14c0,.06.19.24.43.53.54.64,1.49,1.78,2.71,3.34a.5.5,0,0,1-.09.7A.5.5,0,0,1-1182.41,330.23Z" transform="translate(1229.33 -314.94)"/><path class="cls-2" d="M-1155.48,374.92h-.06a.51.51,0,0,1-.44-.56c.19-1.62.47-3.3.82-5a.5.5,0,0,1,.6-.38.49.49,0,0,1,.38.59c-.35,1.65-.62,3.29-.8,4.89A.51.51,0,0,1-1155.48,374.92Zm2-9.78-.14,0a.51.51,0,0,1-.34-.62c.47-1.57,1-3.18,1.6-4.78a.49.49,0,0,1,.64-.29.49.49,0,0,1,.29.64c-.58,1.58-1.11,3.17-1.57,4.71A.49.49,0,0,1-1153.44,365.14Zm3.46-9.38a.79.79,0,0,1-.2,0,.5.5,0,0,1-.25-.66c.65-1.5,1.38-3,2.14-4.55a.49.49,0,0,1,.67-.22.5.5,0,0,1,.23.67c-.76,1.51-1.48,3-2.13,4.5A.49.49,0,0,1-1150,355.76Zm4.49-8.94a.44.44,0,0,1-.24-.07.49.49,0,0,1-.19-.68c.8-1.43,1.66-2.89,2.55-4.33a.51.51,0,0,1,.69-.16.49.49,0,0,1,.16.69c-.88,1.43-1.73,2.87-2.53,4.29A.49.49,0,0,1-1145.49,346.82Zm5.26-8.52a.5.5,0,0,1-.28-.08.5.5,0,0,1-.13-.7c.92-1.37,1.89-2.75,2.88-4.11a.49.49,0,0,1,.7-.11.51.51,0,0,1,.11.7c-1,1.34-2,2.72-2.86,4.08A.5.5,0,0,1-1140.23,338.3Zm5.89-8.1a.54.54,0,0,1-.31-.1.5.5,0,0,1-.08-.7c1.22-1.56,2.17-2.7,2.7-3.34.25-.29.4-.47.44-.53a.5.5,0,0,1,.7-.13.49.49,0,0,1,.13.68,7.42,7.42,0,0,1-.5.62c-.53.63-1.47,1.77-2.68,3.31A.5.5,0,0,1-1134.34,330.2Z" transform="translate(1229.33 -314.94)"/><ellipse class="cls-5" cx="-1199.74" cy="393.09" rx="9.15" ry="10.21" transform="translate(969.73 -764.49) rotate(-23.73)"/><path class="cls-2" d="M-1199,404.64a11.77,11.77,0,0,1-10.52-7.26c-2.6-5.91-.34-12.65,5-15a10.13,10.13,0,0,1,8.36.14,12.28,12.28,0,0,1,6.11,6.3,12.2,12.2,0,0,1,.5,8.76,10.14,10.14,0,0,1-5.54,6.25A9.74,9.74,0,0,1-1199,404.64Zm-1.52-20.1a6.77,6.77,0,0,0-2.76.58c-3.86,1.69-5.43,6.65-3.5,11.05s6.65,6.6,10.51,4.9a7.15,7.15,0,0,0,3.9-4.44,9.28,9.28,0,0,0-.4-6.62h0a9.24,9.24,0,0,0-4.6-4.77A7.74,7.74,0,0,0-1200.49,384.54Z" transform="translate(1229.33 -314.94)"/><ellipse class="cls-5" cx="-1114.98" cy="392.41" rx="10.21" ry="9.15" transform="translate(203.78 -1101.16) rotate(-66.27)"/><path class="cls-2" d="M-1115.73,404a9.78,9.78,0,0,1-4-.84c-5.38-2.36-7.64-9.09-5-15a12.28,12.28,0,0,1,6.11-6.3,10.13,10.13,0,0,1,8.36-.14c5.37,2.36,7.64,9.1,5,15a12.28,12.28,0,0,1-6.12,6.29A10.6,10.6,0,0,1-1115.73,404Zm1.5-20.11a7.65,7.65,0,0,0-3.15.7,9.28,9.28,0,0,0-4.6,4.77h0c-1.94,4.4-.37,9.36,3.5,11.06a7.16,7.16,0,0,0,5.9-.13,9.26,9.26,0,0,0,4.61-4.77c1.93-4.4.36-9.36-3.5-11.05A6.77,6.77,0,0,0-1114.23,383.86Zm-9.13,4.87h0Z" transform="translate(1229.33 -314.94)"/><path class="cls-4" d="M-1157.6,378.92l4.42-2.47a1.12,1.12,0,0,0-.55-2.11h-8.85a1.13,1.13,0,0,0-.55,2.11l4.43,2.47A1.13,1.13,0,0,0-1157.6,378.92Z" transform="translate(1229.33 -314.94)"/></svg>