<svg id="圖層_4" data-name="圖層 4" xmlns="http://www.w3.org/2000/svg" viewBox="0 0 211.06 163.72"><defs><style>.cls-1{fill:#fff;}.cls-2{fill:#7c695b;}.cls-3{fill:#d19937;}.cls-4{fill:#33322d;}.cls-5{fill:#e0dc90;}</style></defs><title>貓</title><path class="cls-1" d="M-1357.26,409.2c8.25-1.6,17.72-2.69,26-1,6.37,1.31,11.8,4.95,18.54,3.77,17-3,28.47-18.46,28.9-35.11,0,1.27,4.45,4.42,5.44,5.23a35.12,35.12,0,0,1,6.17,5.95,38.06,38.06,0,0,1,6.82,14.94c1.65,8.5-.67,17-5.28,24.16A63.78,63.78,0,0,1-1283,440.92c-21.15,18.16-62.08,8.54-71.83-18C-1355.28,421.73-1358.51,409.44-1357.26,409.2Z" transform="translate(1474.4 -328.39)"/><path class="cls-2" d="M-1310.52,451.73a55.1,55.1,0,0,1-13.83-1.79c-15.35-4-27.28-13.91-31.91-26.52,0-.12-3.77-12.52-2.47-14.83a1.72,1.72,0,0,1,1.18-.86h0c10.86-2.11,19.56-2.43,26.61-1a50.5,50.5,0,0,1,6.35,1.88c3.88,1.34,7.53,2.6,11.63,1.88,15.6-2.73,27.23-16.89,27.66-33.67h0a1.48,1.48,0,0,1,1.53-1.46,1.51,1.51,0,0,1,1.46,1.32,19.92,19.92,0,0,0,4,3.57c.39.3.7.53.88.69l.62.51a32,32,0,0,1,5.81,5.71,39.2,39.2,0,0,1,7.08,15.54c1.63,8.37-.27,17.1-5.49,25.25A64.81,64.81,0,0,1-1282,442.06C-1289.39,448.37-1299.63,451.73-1310.52,451.73ZM-1356,410.5a79.94,79.94,0,0,0,2.6,11.88c4.3,11.69,15.46,20.91,29.86,24.66,14.74,3.83,29.91,1.06,39.59-7.26a62.1,62.1,0,0,0,12.09-13.43c3.34-5.22,6.94-13.46,5.06-23.06a36.36,36.36,0,0,0-6.55-14.35,29.47,29.47,0,0,0-5.3-5.15l-.62-.52-.79-.61c-1-.74-1.78-1.39-2.47-2-2,16.52-14.05,30-29.86,32.78-4.86.85-9.06-.6-13.12-2a49,49,0,0,0-6-1.78C-1338,408.36-1346,408.63-1356,410.5Zm73.75-33.58h0Z" transform="translate(1474.4 -328.39)"/><path class="cls-1" d="M-1426.32,345.06a8.23,8.23,0,0,1-1.65-.83l-23.59-14.34a54.9,54.9,0,0,0-7.43,28.18,15.35,15.35,0,0,1-.59,5.94,15.23,15.23,0,0,1-3.12,4.27c-7.19,8-12.56,19.09-9.19,29.28,2.46,7.43,9,12.7,15.59,16.93A36.7,36.7,0,0,0-1467.64,443c1.17,19.66,19.36,33.35,34.9,42.65a5.8,5.8,0,0,0,2.36,1c3,.27,5.23-1.1,7.51-4.51-1.93,2.33-.36,6.18,2.33,7.58s5.92,1,8.89.42a72.52,72.52,0,0,0,17.78-6.06c2.47-1.21,4.94-2.59,7.67-2.9,3-.35,6,.61,9,1.06,9.65,1.47,19.65-2.61,26.64-9.43s13.81-15.09,15.93-24.62c2-8.94-.48-19.71-4.7-27.83s-13.69-14-22.59-11.81c9.17-12.69,7.37-32.06-4-42.85a29.6,29.6,0,0,0,2.72-20.32,4.06,4.06,0,0,0-1.1-2.26,4,4,0,0,0-2.34-.74,31.22,31.22,0,0,0-17.78,3.84,7.11,7.11,0,0,1-3.32,1.25,6.68,6.68,0,0,1-2.76-.82,46,46,0,0,0-32.36-1.86,6.47,6.47,0,0,1-2.8.48A3.6,3.6,0,0,1-1426.32,345.06Z" transform="translate(1474.4 -328.39)"/><path class="cls-2" d="M-1416.15,492.11a11,11,0,0,1-5.09-1.12,7.68,7.68,0,0,1-3.67-4.44,7.82,7.82,0,0,1-5.6,1.53,7,7,0,0,1-3-1.17c-14.7-8.8-34.39-22.92-35.63-43.85a38.1,38.1,0,0,1,10.47-28.33c-5.76-3.86-12.15-9.16-14.65-16.7-3.06-9.28.49-20.77,9.51-30.76l.31-.33a12.42,12.42,0,0,0,2.53-3.49,12.48,12.48,0,0,0,.49-4.74v-.62a56.06,56.06,0,0,1,7.63-28.95,1.5,1.5,0,0,1,.93-.7,1.5,1.5,0,0,1,1.15.17l23.59,14.33a6.65,6.65,0,0,0,1.34.7h0a2,2,0,0,0,.35.09,5.16,5.16,0,0,0,2-.39l.13,0a47.7,47.7,0,0,1,33.43,1.92l.14.07a5.49,5.49,0,0,0,2,.62h0a5.43,5.43,0,0,0,2.35-.92l.25-.14a32.79,32.79,0,0,1,18.63-4,5.32,5.32,0,0,1,3.2,1.1,5.35,5.35,0,0,1,1.58,3.06,31.31,31.31,0,0,1-2.34,20.36c10.44,10.68,12.52,28.3,5.16,41.22,8.11-.31,16.65,4.85,20.9,13,3.81,7.32,7.07,18.74,4.83,28.84-2.39,10.79-10.48,19.65-16.35,25.38-7.82,7.62-18.25,11.3-27.91,9.83-.85-.13-1.71-.3-2.56-.47a19.49,19.49,0,0,0-6-.58,19.43,19.43,0,0,0-6.29,2.32l-.89.44a74.68,74.68,0,0,1-18.15,6.18A25,25,0,0,1-1416.15,492.11Zm-5.81-8.71a2.79,2.79,0,0,0-.2,1.83,4.71,4.71,0,0,0,2.31,3.09c2.29,1.2,5.28.81,7.91.28a71.44,71.44,0,0,0,17.41-5.92l.88-.44a22.15,22.15,0,0,1,7.28-2.61,22.11,22.11,0,0,1,6.92.62c.8.16,1.61.32,2.42.45,8.61,1.31,18.32-2.15,25.37-9,8.89-8.68,13.82-16.26,15.51-23.88,1.73-7.79,0-18.07-4.56-26.81-4.23-8.15-13.22-12.9-20.91-11a1.51,1.51,0,0,1-1.59-.63,1.49,1.49,0,0,1,0-1.71c8.65-12,6.91-30.7-3.8-40.88a1.49,1.49,0,0,1-.29-1.79,28.16,28.16,0,0,0,2.57-19.28,3,3,0,0,0-.6-1.46,3,3,0,0,0-1.5-.38,29.66,29.66,0,0,0-16.91,3.65l-.24.13a7.78,7.78,0,0,1-3.82,1.31h0A7.71,7.71,0,0,1-1391,348l-.14-.06a44.63,44.63,0,0,0-31.3-1.8l-.13,0a7.57,7.57,0,0,1-3.32.5,4.88,4.88,0,0,1-.9-.21h0a9.94,9.94,0,0,1-2-1L-1451,332a53.07,53.07,0,0,0-6.47,26.08v.6a14.81,14.81,0,0,1-.71,5.9,14.79,14.79,0,0,1-3.09,4.39l-.3.34c-8.29,9.17-11.61,19.56-8.89,27.8,2.43,7.34,9.28,12.48,15,16.14a1.49,1.49,0,0,1,.69,1.12,1.49,1.49,0,0,1-.47,1.23,35,35,0,0,0-10.87,27.3c1.16,19.52,20.05,33,34.17,41.46a4.56,4.56,0,0,0,1.73.75c1.65.15,3.48-.16,5.75-3.3a6.2,6.2,0,0,1,.47-.67,1.5,1.5,0,0,1,2-.24,1.5,1.5,0,0,1,.35,2C-1421.73,483.08-1421.84,483.25-1422,483.4Z" transform="translate(1474.4 -328.39)"/><path class="cls-2" d="M-1424.13,485.88a1.48,1.48,0,0,1-.89-.29,1.5,1.5,0,0,1-.32-2.1c3.27-4.43,1.09-9.71-1.47-14.29a79.48,79.48,0,0,1-7.75-18.68,1.49,1.49,0,0,1,1.07-1.82,1.5,1.5,0,0,1,1.83,1.07,77.2,77.2,0,0,0,7.47,18c2.85,5.1,5.57,11.7,1.27,17.53A1.51,1.51,0,0,1-1424.13,485.88Z" transform="translate(1474.4 -328.39)"/><path class="cls-2" d="M-1389.58,483.5a1.5,1.5,0,0,1-1.15-.54,1.51,1.51,0,0,1,.19-2.12c.27-.21,26.14-22.07,24.74-54.69a1.49,1.49,0,0,1,1.43-1.56,1.51,1.51,0,0,1,1.57,1.43c1.46,34.14-25.55,56.91-25.82,57.13A1.46,1.46,0,0,1-1389.58,483.5Z" transform="translate(1474.4 -328.39)"/><path class="cls-2" d="M-1439.49,435.86a1,1,0,0,1-.68-.28l-1.89-1.77-.19-.17-.15.17a2.15,2.15,0,0,1-1.5.92c-.54,0-1.52-.15-2.08-1.78l-.39-1.14a1.74,1.74,0,0,0-.1.19,1.07,1.07,0,0,1-.9.54,1,1,0,0,1-.89-.56,34.26,34.26,0,0,1-2.71-7.81,1,1,0,0,1,.76-1.19,1,1,0,0,1,1.19.76,31.72,31.72,0,0,0,1.55,5.08l.06-.36a1,1,0,0,1,.89-.86,1,1,0,0,1,1,.67l1.39,4a2,2,0,0,0,.12.28l0-.07a2.31,2.31,0,0,1,1.43-.92,2.3,2.3,0,0,1,1.81.76l1.88,1.78a1,1,0,0,1,0,1.41A1,1,0,0,1-1439.49,435.86Z" transform="translate(1474.4 -328.39)"/><path class="cls-2" d="M-1410.08,437.19a2.61,2.61,0,0,1-1-.21,1,1,0,0,1-.54-1.31,1,1,0,0,1,1.31-.54c.55.23,1.41-.34,2.18-.93,2.12-1.63,3.53-1.35,4.35-.83a4.27,4.27,0,0,1,.76.67,2.06,2.06,0,0,0,.29.3,3.39,3.39,0,0,0,2.61.2,30.36,30.36,0,0,0,4-1,22,22,0,0,0,5.66-2.82,1,1,0,0,1,1.39.25,1,1,0,0,1-.25,1.4,24.2,24.2,0,0,1-6.17,3.07,32.46,32.46,0,0,1-4.22,1.05c-1.42.26-3,.39-4.26-.64a5.21,5.21,0,0,1-.47-.47,1.84,1.84,0,0,0-.37-.34c-.37-.25-1.14,0-2,.73A5.5,5.5,0,0,1-1410.08,437.19Z" transform="translate(1474.4 -328.39)"/><path class="cls-2" d="M-1274.17,417h0l-3.07-.11a2.67,2.67,0,0,1-1.48-.38,2.71,2.71,0,0,1-1-1.87l-1.32-7a1.81,1.81,0,0,0-.14-.43,4.11,4.11,0,0,1-.3.29,2.19,2.19,0,0,1-1.66.44,2.84,2.84,0,0,1-1.87-1.08,5.47,5.47,0,0,1-.9-2.75,1,1,0,0,1,.86-1.12,1,1,0,0,1,1.12.87,3.87,3.87,0,0,0,.51,1.79.86.86,0,0,0,.52.31s.13,0,.17,0a.71.71,0,0,0,.15-.15,2.13,2.13,0,0,1,.95-.67,1.61,1.61,0,0,1,1.35.15,3.07,3.07,0,0,1,1.2,2l1.32,7.05a1.4,1.4,0,0,0,.18.58,2.22,2.22,0,0,0,.41,0l3.07.11a1,1,0,0,1,1,1A1,1,0,0,1-1274.17,417Z" transform="translate(1474.4 -328.39)"/><ellipse class="cls-2" cx="-1440.13" cy="380.14" rx="6.47" ry="4.34" transform="translate(-153.68 -1425.8) rotate(-82.46)"/><ellipse class="cls-2" cx="-1392.43" cy="385.44" rx="6.47" ry="4.34" transform="translate(-117.5 -1373.91) rotate(-82.46)"/><path class="cls-2" d="M-1414,399.69a1.49,1.49,0,0,1-1.25-.66l-2.47-3.68-3.12,2.75A1.49,1.49,0,0,1-1423,398a1.49,1.49,0,0,1,.13-2.11l4.39-3.89a1.52,1.52,0,0,1,1.19-.36,1.47,1.47,0,0,1,1,.65l3.43,5.09a1.5,1.5,0,0,1-.41,2.08A1.5,1.5,0,0,1-1414,399.69Z" transform="translate(1474.4 -328.39)"/><path class="cls-2" d="M-1416.8,393.76l4.71-1.86a1.12,1.12,0,0,0-.27-2.16l-8.78-1.17a1.13,1.13,0,0,0-.82,2l4.07,3A1.12,1.12,0,0,0-1416.8,393.76Z" transform="translate(1474.4 -328.39)"/><path class="cls-2" d="M-1382.47,398h-8.94a1,1,0,0,1-1-1,1,1,0,0,1,1-1h8.94a1,1,0,0,1,1,1A1,1,0,0,1-1382.47,398Z" transform="translate(1474.4 -328.39)"/><path class="cls-2" d="M-1382.47,405.68a1,1,0,0,1-.34-.06l-7.15-2.55a1,1,0,0,1-.6-1.28,1,1,0,0,1,1.28-.61l7.14,2.56a1,1,0,0,1,.61,1.28A1,1,0,0,1-1382.47,405.68Z" transform="translate(1474.4 -328.39)"/><path class="cls-2" d="M-1441.15,393.72a1.09,1.09,0,0,1-.26,0l-9.45-2.56a1,1,0,0,1-.7-1.22,1,1,0,0,1,1.22-.71l9.45,2.56a1,1,0,0,1,.7,1.22A1,1,0,0,1-1441.15,393.72Z" transform="translate(1474.4 -328.39)"/><path class="cls-2" d="M-1442.94,398.83h-7.91a1,1,0,0,1-1-1,1,1,0,0,1,1-1h7.91a1,1,0,0,1,1,1A1,1,0,0,1-1442.94,398.83Z" transform="translate(1474.4 -328.39)"/><path class="cls-3" d="M-1442.43,477.49c2.6,1.74-1.51-7-3.92-9.32-1.15-1.12-2.81-1.24-3.74-2.69-.83-1.27,2.21-3.84,2.67-4.87a7,7,0,0,0,.22-4.78c-.83-3.18-3.46-7.25-6.93-7.91-4.26-.82-6.75.57-10.77,1.48C-1464.9,449.4-1464.13,462.94-1442.43,477.49Z" transform="translate(1474.4 -328.39)"/><path class="cls-4" d="M-1456.73,348.23s-1.47,8.3-.76,12.51l-2.75,7,9,.47c3.92.2,7.82.58,11.71-.14,1.09-.2,2.15-.49,3.23-.73.89-.19,2.09-.27,2.1-1.42,0-2.17.73-.42,1-2.58.22-1.63-6.41-5.93-6.85-7.53-.8-3,4-7.11,2.9-10a2.74,2.74,0,0,0-.73-1.2,2.57,2.57,0,0,0-1.39-.41,12.26,12.26,0,0,0-4.84,1,10.33,10.33,0,0,1-2.45.54,4.75,4.75,0,0,1-2.38-.62,4.72,4.72,0,0,0-2.39-.76,2.34,2.34,0,0,0-1.17.64C-1453.83,346.18-1455.31,347.18-1456.73,348.23Z" transform="translate(1474.4 -328.39)"/><path class="cls-3" d="M-1362.26,373.06s9.06,12.45,1.79,29.94c-.52,1.23-3.57,1-4.59,1-2.59,0-3.61-.84-4.1-3.47a8.61,8.61,0,0,0-3.19-5.63c-1.53-1.25-3.3-2.21-4.75-3.56a5.22,5.22,0,0,1-1.56-2.37c-.48-2,.87-4,1.71-5.66s1.93-1.94,3.23-3.09a19.47,19.47,0,0,0,3.46-3.9c.85-1.32,1.32-2.87,2.35-4.07S-1363.37,371.77-1362.26,373.06Z" transform="translate(1474.4 -328.39)"/><path class="cls-5" d="M-1454.11,360a53.68,53.68,0,0,0-6.3,5.62" transform="translate(1474.4 -328.39)"/><path class="cls-2" d="M-1460.41,367.16a1.51,1.51,0,0,1-1-.41,1.5,1.5,0,0,1-.06-2.12,54,54,0,0,1,6.5-5.8,1.51,1.51,0,0,1,2.1.32,1.5,1.5,0,0,1-.32,2.1,52.57,52.57,0,0,0-6.1,5.44A1.49,1.49,0,0,1-1460.41,367.16Z" transform="translate(1474.4 -328.39)"/><path class="cls-4" d="M-1340.7,422.52a7.56,7.56,0,0,1,2.18,3.37,54.48,54.48,0,0,1,3.22,16.51c.11,2.93-.06,6-1.7,8.46a10.51,10.51,0,0,1-4.45,3.56c-2.35,1.09-5.35,1.48-7.37-.14s-2.25-4.39-1.54-6.73,2.24-4.32,3.62-6.33a2.83,2.83,0,0,0,.59-1.25c.19-1.47-1.62-2.27-3-2.68s-11.32-4.94-8.13-7.19a2.86,2.86,0,0,1,1.9-.31c3.42.23,6.83.64,10.22,1.21.1-1.75-.42-3.5-.3-5.25s1.22-3.68,3-3.8A2.71,2.71,0,0,1-1340.7,422.52Z" transform="translate(1474.4 -328.39)"/><path class="cls-4" d="M-1292.9,445.66A54.09,54.09,0,0,0-1277,433.32c2.37-2.72,2.22-5.49-1.19-7-2.32-1-7.1-2.46-9.45-1.15l-8.35,4.65c-3,1.67-6.38,1.15-9.7,1.1-2,0-4-.59-5.95-.42-.94.08-1.75.12-2.08,1-.55,1.57.33,3.32.93,4.74,1.68,3.95,3.17,8.38,7.08,10.68a8.84,8.84,0,0,0,3.77,1.2" transform="translate(1474.4 -328.39)"/></svg>