<svg id="圖層_4" data-name="圖層 4" xmlns="http://www.w3.org/2000/svg" viewBox="0 0 169.14 159.19"><defs><style>.cls-1{fill:#fff;}.cls-2{fill:#8e7866;}.cls-3{fill:#ef4343;}.cls-4{fill:#7c695b;}</style></defs><title>狗</title><path class="cls-1" d="M-995.74,443.52a39.25,39.25,0,0,1-24.18,6.51c-2.5-.16-5.31-.47-7.21,1.16s-2,4.35-1.12,6.53a15.2,15.2,0,0,0,4.46,5.41,113.9,113.9,0,0,0,12.71,9.36c2.58,1.65,10.08,7.93,11.93,4.86,1-1.71.62-6.11.82-8.13l.88-8.77.89-8.78C-996.45,450.52-996.56,444.07-995.74,443.52Z" transform="translate(1053.5 -333.26)"/><path class="cls-2" d="M-1000.75,479.68c-2.58,0-6-2.26-9.5-4.79-.65-.46-1.21-.87-1.64-1.14a114.49,114.49,0,0,1-12.87-9.48,16.44,16.44,0,0,1-4.88-6c-1.24-3-.61-6.4,1.53-8.24s5.34-1.72,7.82-1.55l.47,0a37.63,37.63,0,0,0,23.24-6.25h0a1.5,1.5,0,0,1,2.09.41,1.49,1.49,0,0,1-.11,1.8A35.79,35.79,0,0,0-995,450c0,.83,0,1.44-.07,1.78l-1.77,17.55c0,.54-.06,1.35-.06,2.2,0,2.35,0,5-1,6.55a3.11,3.11,0,0,1-2.1,1.48A3.47,3.47,0,0,1-1000.75,479.68Zm-21.91-28.29a5.27,5.27,0,0,0-3.5.94c-1.3,1.12-1.34,3.27-.7,4.82a14,14,0,0,0,4,4.85,111.67,111.67,0,0,0,12.54,9.22c.46.3,1.07.73,1.77,1.23,1.9,1.36,6.34,4.53,7.93,4.22a.17.17,0,0,0,.14-.1c.5-.83.52-3.35.53-5,0-.92,0-1.8.08-2.48l1.77-17.55c0-.27,0-.84,0-1.56,0-1.36.07-2.47.13-3.39a40.74,40.74,0,0,1-22.15,5l-.48,0C-1021.22,451.44-1022,451.39-1022.66,451.39Z" transform="translate(1053.5 -333.26)"/><path class="cls-1" d="M-906.9,416.8a3.77,3.77,0,0,1,.85,1.65c4.49,14.24,1.71,29.72-1.37,44.36-1.53,7.3-3.19,16.21-8.44,21.78a14.29,14.29,0,0,1-18.5,1.44,5.36,5.36,0,0,1-3.94,4.57,12.06,12.06,0,0,1-6.25-.17,42.09,42.09,0,0,1-10.6-4,9.08,9.08,0,0,0-3-1.23,8.36,8.36,0,0,0-3.24.43,76.08,76.08,0,0,1-14,2.21c-6.72.42-13.61-.1-19.86-2.68-8.3-3.41-15.34-11-16.52-20.12-.74-5.7.78-11.44,2.67-16.84A118.61,118.61,0,0,1-998.62,426a12.07,12.07,0,0,1,2.27-3,12.43,12.43,0,0,1,3-1.76l32.31-15a11.29,11.29,0,0,1,3-1.06,11.5,11.5,0,0,1,4.39.43L-908.77,416A3.76,3.76,0,0,1-906.9,416.8Z" transform="translate(1053.5 -333.26)"/><path class="cls-2" d="M-940.76,492.45a18.06,18.06,0,0,1-4.13-.56,43.73,43.73,0,0,1-11-4.15l-.25-.13a7,7,0,0,0-2.26-.93,6.94,6.94,0,0,0-2.53.35l-.14,0a76.46,76.46,0,0,1-14.26,2.26c-8,.5-14.75-.41-20.52-2.79-9.43-3.87-16.27-12.24-17.44-21.32-.8-6.23.94-12.35,2.74-17.52a120.46,120.46,0,0,1,10.62-22.53,13.34,13.34,0,0,1,2.56-3.32,14.11,14.11,0,0,1,3.37-2l32.31-15a12.82,12.82,0,0,1,3.38-1.18,12.54,12.54,0,0,1,4.95.45l44.9,10.36a5.23,5.23,0,0,1,2.57,1.18h0a5.13,5.13,0,0,1,1.23,2.28c4.51,14.32,2,29.51-1.33,45.12l-.21,1c-1.47,7.08-3.31,15.88-8.61,21.5a15.91,15.91,0,0,1-18.7,2.78,7.25,7.25,0,0,1-4.39,3.64A10,10,0,0,1-940.76,492.45Zm-18-8.8a7.13,7.13,0,0,1,.79.05,9.74,9.74,0,0,1,3.29,1.27l.24.13A40.68,40.68,0,0,0-944.22,489a10.84,10.84,0,0,0,5.48.2,3.92,3.92,0,0,0,2.89-3.21,1.48,1.48,0,0,1,.87-1.29,1.48,1.48,0,0,1,1.55.18,12.71,12.71,0,0,0,16.48-1.29c4.72-5,6.38-13,7.86-20.05l.21-1c3.19-15.2,5.7-30,1.4-43.6a3.08,3.08,0,0,0-.46-1,2.82,2.82,0,0,0-1.16-.43L-954,407.09a10.35,10.35,0,0,0-3.81-.41,10.28,10.28,0,0,0-2.59.94l-32.31,15a11.31,11.31,0,0,0-2.66,1.52,11,11,0,0,0-2,2.61,116.66,116.66,0,0,0-10.35,22c-1.7,4.84-3.33,10.54-2.6,16.14,1,8,7.15,15.46,15.6,18.94,5.34,2.19,11.62,3,19.19,2.56a73.77,73.77,0,0,0,13.7-2.17l.14,0A11.34,11.34,0,0,1-958.76,483.65Z" transform="translate(1053.5 -333.26)"/><path class="cls-3" d="M-991.79,408.92c-1.9,0-5.17,5-5.82,6.56-5.57,13.26,20.08,17.14,27,18.32a110.41,110.41,0,0,0,30.75.88c10.66-1.18,27.38-2.75,33.85-13.2a9.92,9.92,0,0,0,1.67-5.6c0-1-1.09-5.56-2.39-5.58Z" transform="translate(1053.5 -333.26)"/><path class="cls-2" d="M-952.23,436.86a110.8,110.8,0,0,1-18.67-1.58l-.7-.12c-10.62-1.8-23.3-4.76-27.18-11.81a9.28,9.28,0,0,1-.21-8.45c.37-.89,4-7.48,7.19-7.48h0l41,.67,44,.71c3.11.05,3.86,6.94,3.87,7a11.22,11.22,0,0,1-1.9,6.46c-6.67,10.79-23.18,12.6-34.1,13.8l-.86.1A113.65,113.65,0,0,1-952.23,436.86Zm-39.54-26.44c-1,.27-3.77,4-4.46,5.64a6.37,6.37,0,0,0,.08,5.84c3.67,6.69,19.76,9.41,25,10.3l.7.12a109.1,109.1,0,0,0,30.33.87l.86-.1c10.34-1.13,26-2.85,31.88-12.4a8.35,8.35,0,0,0,1.45-4.75,13,13,0,0,0-1.26-4.15l-43.65-.71Zm85,1.38h0Zm-85-1.38Zm0,0" transform="translate(1053.5 -333.26)"/><path class="cls-1" d="M-925.32,352.65s10.6,12.65,35.68,28.89c0,0,15.78,13.81-17.14,28.2l-20.78-26.57Z" transform="translate(1053.5 -333.26)"/><path class="cls-2" d="M-906.78,411.24a1.5,1.5,0,0,1-1.19-.57l-20.77-26.58a1.47,1.47,0,0,1-.31-1l2.23-30.52a1.52,1.52,0,0,1,1-1.32,1.52,1.52,0,0,1,1.61.47c.1.12,10.79,12.69,35.34,28.59a1.09,1.09,0,0,1,.17.13c.22.18,5.19,4.63,4.16,11.31-1.09,7.06-8.39,13.59-21.68,19.4A1.61,1.61,0,0,1-906.78,411.24ZM-926,382.7l19.7,25.2c11.46-5.18,18-10.92,18.85-16.64.73-4.7-2.58-8-3.09-8.53-18.54-12-29.13-22-33.52-26.51Z" transform="translate(1053.5 -333.26)"/><path class="cls-1" d="M-916.46,373.79c-2.77-4.21-2.69-9.57-4-14.39-2.11-7.51-7.86-13.77-14.81-17.75s-15-5.84-23-6.57c-16.79-1.54-35.26,2.42-46.16,14.83-6.47,7.37-9.89,17.21-17.7,23.26-6.77,5.26-15.89,6.86-23.1,11.55-3.32,2.15-6.36,5.29-6.65,9.13-.39,5.24,3.31,13,7.84,15.9,11.57,7.5,26.79,9.15,40.41,6.25a20.74,20.74,0,0,1,4.67-.73c2.74.05,5.22,1.46,7.62,2.72a88.69,88.69,0,0,0,49.56,9.27,88.44,88.44,0,0,0,25-6.18c3.52-1.45,7.6-2.87,10-5.76a29.83,29.83,0,0,0,5.64-12.06,26.91,26.91,0,0,0,.57-3.67,21.49,21.49,0,0,0-5.86-16.91c-3.09-3.06-7.28-5.1-9.74-8.65Z" transform="translate(1053.5 -333.26)"/><path class="cls-2" d="M-950.83,429.2a89.58,89.58,0,0,1-41.3-9.88l-.5-.27c-2.19-1.15-4.26-2.24-6.45-2.28a15.17,15.17,0,0,0-3.47.51l-.85.19c-14.89,3.16-30.42.75-41.55-6.47-4.89-3.17-9-11.4-8.51-17.26.28-3.74,2.88-7.4,7.32-10.28a63.9,63.9,0,0,1,10.9-5.26c4.41-1.79,8.58-3.48,12.11-6.21,4.43-3.44,7.37-8.14,10.48-13.12a74.84,74.84,0,0,1,7-9.95c10-11.4,27.74-17.14,47.42-15.33,9.47.86,17.21,3.08,23.65,6.76,7.78,4.46,13.43,11.25,15.51,18.64a52,52,0,0,1,1.07,5.1c.57,3.26,1.11,6.33,2.78,8.87h0l.15.22a23,23,0,0,0,5.38,5,39.84,39.84,0,0,1,4.17,3.46,23,23,0,0,1,6.3,18.09,26.65,26.65,0,0,1-.6,3.88,31.18,31.18,0,0,1-5.94,12.68c-2.39,2.88-6.14,4.4-9.44,5.73l-1.14.47a89.62,89.62,0,0,1-25.39,6.28Q-946.28,429.2-950.83,429.2Zm-48.37-15.43h.18c2.9.05,5.5,1.42,7.79,2.63l.5.26a87.41,87.41,0,0,0,48.71,9.1,86.41,86.41,0,0,0,24.54-6.06l1.16-.48c3.13-1.26,6.36-2.57,8.26-4.86a28.28,28.28,0,0,0,5.33-11.43,25.24,25.24,0,0,0,.53-3.46,20,20,0,0,0-5.42-15.72,37.63,37.63,0,0,0-3.86-3.19,26,26,0,0,1-6-5.67l-.19-.28c-2-3.06-2.63-6.59-3.23-10a47.81,47.81,0,0,0-1-4.8c-1.87-6.65-7-12.79-14.11-16.85-6.06-3.47-13.4-5.56-22.44-6.39-18.72-1.71-35.51,3.64-44.89,14.33a72.86,72.86,0,0,0-6.71,9.56c-3.12,5-6.34,10.13-11.2,13.9-3.85,3-8.4,4.83-12.81,6.62a63,63,0,0,0-10.4,5c-2.1,1.37-5.68,4.23-6,8-.36,4.76,3.19,12,7.15,14.53,10.48,6.79,25.17,9.05,39.29,6l.82-.18A18,18,0,0,1-999.2,413.77Z" transform="translate(1053.5 -333.26)"/><path class="cls-1" d="M-957.17,485.19s-14.47-10.77-20.34-17.4" transform="translate(1053.5 -333.26)"/><path class="cls-2" d="M-957.17,486.69a1.5,1.5,0,0,1-.9-.3c-.6-.44-14.66-10.93-20.57-17.61a1.5,1.5,0,0,1,.13-2.12,1.5,1.5,0,0,1,2.12.13c5.7,6.45,20,17.09,20.11,17.2a1.49,1.49,0,0,1,.31,2.09A1.49,1.49,0,0,1-957.17,486.69Z" transform="translate(1053.5 -333.26)"/><path class="cls-1" d="M-934.56,487.49s1.44-10.57-3.74-32.85" transform="translate(1053.5 -333.26)"/><path class="cls-2" d="M-934.55,489l-.21,0a1.49,1.49,0,0,1-1.28-1.68c0-.13,1.31-10.67-3.72-32.31a1.49,1.49,0,0,1,1.12-1.8,1.5,1.5,0,0,1,1.8,1.12c5.18,22.29,3.83,32.95,3.77,33.39A1.5,1.5,0,0,1-934.55,489Z" transform="translate(1053.5 -333.26)"/><ellipse class="cls-4" cx="83.83" cy="50.89" rx="4.34" ry="6.47"/><ellipse class="cls-4" cx="124.23" cy="47.83" rx="3.78" ry="6.47"/><path class="cls-4" d="M-942.26,403.69a1.47,1.47,0,0,1-1.12-.51l-2.94-3.31L-949,403a1.49,1.49,0,0,1-2.12.15,1.5,1.5,0,0,1-.15-2.11l3.85-4.43a1.54,1.54,0,0,1,1.13-.52,1.54,1.54,0,0,1,1.13.51l4.06,4.6a1.49,1.49,0,0,1-.12,2.11A1.47,1.47,0,0,1-942.26,403.69Z" transform="translate(1053.5 -333.26)"/><path class="cls-4" d="M-945.6,398.17l4.42-2.46a1.13,1.13,0,0,0-.55-2.12h-8.85a1.13,1.13,0,0,0-.55,2.12l4.43,2.46A1.13,1.13,0,0,0-945.6,398.17Z" transform="translate(1053.5 -333.26)"/><path class="cls-1" d="M-995.37,408.68s-1.4,4.72-5.87,6.26" transform="translate(1053.5 -333.26)"/><path class="cls-2" d="M-1001.24,416.44a1.52,1.52,0,0,1-1.42-1,1.49,1.49,0,0,1,.94-1.9c3.69-1.27,4.91-5.23,4.92-5.27a1.5,1.5,0,0,1,1.86-1,1.5,1.5,0,0,1,1,1.87c-.06.22-1.68,5.48-6.82,7.24A1.41,1.41,0,0,1-1001.24,416.44Z" transform="translate(1053.5 -333.26)"/><path class="cls-2" d="M-973.55,399.78a1.15,1.15,0,0,1-.26,0l-10-1.7a1.5,1.5,0,0,1-1.23-1.73,1.52,1.52,0,0,1,1.73-1.23l10,1.71a1.5,1.5,0,0,1,1.23,1.73A1.5,1.5,0,0,1-973.55,399.78Z" transform="translate(1053.5 -333.26)"/><path class="cls-2" d="M-973.9,405.05h-8.68a1.5,1.5,0,0,1-1.5-1.5,1.5,1.5,0,0,1,1.5-1.5h8.68a1.5,1.5,0,0,1,1.5,1.5A1.5,1.5,0,0,1-973.9,405.05Z" transform="translate(1053.5 -333.26)"/><path class="cls-2" d="M-922.49,394a1.51,1.51,0,0,1-1.48-1.22,1.5,1.5,0,0,1,1.19-1.75l5.28-1a1.52,1.52,0,0,1,1.76,1.19,1.51,1.51,0,0,1-1.19,1.76l-5.28,1A1.33,1.33,0,0,1-922.49,394Z" transform="translate(1053.5 -333.26)"/><path class="cls-2" d="M-920.79,399.61a1.51,1.51,0,0,1-1.49-1.31,1.5,1.5,0,0,1,1.29-1.68l5.11-.68a1.5,1.5,0,0,1,1.68,1.29,1.5,1.5,0,0,1-1.29,1.68l-5.1.68Z" transform="translate(1053.5 -333.26)"/></svg>