<svg id="圖層_4" data-name="圖層 4" xmlns="http://www.w3.org/2000/svg" viewBox="0 0 121.05 121.05"><defs><style>.cls-1{fill:#e0dc90;}.cls-2{fill:#7c695b;}.cls-3{fill:#eda845;}</style></defs><title>壓</title><path class="cls-1" d="M-832.64,435.71a3.21,3.21,0,0,0-.43-1.33c-.69-1.24-2.8-2.43-3.8-3.51-10-10.74-8-28.13,1.29-38.76,9-10.36,25.25-12.51,38.2-11.76,13.47.78,26,7.36,30.46,20.79a43.74,43.74,0,0,1,1.6,7.24s2.72,18-4.09,22.47c0,0,10.21,9.53,33.36-6.47,0,0,10.56-7.83,8.17,16-.42,4.29.1,8.6-.58,12.95a51,51,0,0,1-11.37,25.61c-12.32,14.24-31.57,20.09-50,19.23-17.88-.83-38.79-7.11-49.45-22.79a24.47,24.47,0,0,1-4.38-12.08c-.54-8.1,3.14-16.21,7.76-22.65C-834.33,438.52-832.53,437.39-832.64,435.71Z" transform="translate(847.08 -378.71)"/><path class="cls-2" d="M-786.16,499.76c-1.22,0-2.46,0-3.7-.09-10.77-.5-37.25-3.79-50.62-23.45a26,26,0,0,1-4.64-12.83c-.63-9.39,4-18,8-23.62.55-.76,1.12-1.39,1.61-1.95.85-.94,1.36-1.54,1.33-2a1.67,1.67,0,0,0-.24-.69,8.7,8.7,0,0,0-1.87-1.74,14.49,14.49,0,0,1-1.72-1.48c-10.91-11.76-7.84-30.32,1.25-40.76,10.51-12.06,29.21-12.87,39.42-12.28,15.7.91,27.59,9.07,31.81,21.82a45.64,45.64,0,0,1,1.65,7.49c0,.1,2.48,16-3.1,22.49,3.44,1.7,13.06,4.23,30-7.5.11-.08,3.67-2.68,6.9-.85,3.46,2,4.65,7.93,3.62,18.23a53.2,53.2,0,0,0-.19,5.55,49.05,49.05,0,0,1-.41,7.49,52.45,52.45,0,0,1-11.72,26.36C-749.69,492.63-766.84,499.76-786.16,499.76Zm-15.63-118c-9.14,0-24.18,1.64-32.66,11.38-8.25,9.47-11.09,26.21-1.32,36.75A11.33,11.33,0,0,0-834.4,431a9.89,9.89,0,0,1,2.64,2.64,4.61,4.61,0,0,1,.62,2h0c.11,1.76-1,3-2.09,4.22a18.82,18.82,0,0,0-1.41,1.69c-3.73,5.2-8.05,13.17-7.49,21.68A23.07,23.07,0,0,0-838,474.53c8.75,12.87,26.8,21.14,48.28,22.14,19.89.93,37.67-5.89,48.75-18.71a49.46,49.46,0,0,0,11-24.86,46.42,46.42,0,0,0,.37-7,57.76,57.76,0,0,1,.2-5.85c1.21-12-1.07-14.72-2.11-15.31-1.5-.86-3.66.66-3.68.67-23.9,16.52-34.82,6.78-35.27,6.36a1.5,1.5,0,0,1-.47-1.23,1.51,1.51,0,0,1,.67-1.13c4.92-3.19,4.14-16.23,3.42-21a43,43,0,0,0-1.53-7c-3.82-11.54-14.71-18.93-29.13-19.77C-798.67,381.77-800.13,381.72-801.79,381.72Z" transform="translate(847.08 -378.71)"/><ellipse class="cls-3" cx="14.44" cy="55.8" rx="12.94" ry="7.32"/><path class="cls-2" d="M-832.64,443.33c-8.09,0-14.44-3.87-14.44-8.82s6.35-8.82,14.44-8.82,14.44,3.88,14.44,8.82S-824.54,443.33-832.64,443.33Zm0-14.64c-6.74,0-11.44,3.07-11.44,5.82s4.7,5.82,11.44,5.82,11.44-3.06,11.44-5.82S-825.9,428.69-832.64,428.69Z" transform="translate(847.08 -378.71)"/><ellipse class="cls-2" cx="35.01" cy="36.16" rx="4.34" ry="6.47"/><path class="cls-1" d="M-778.94,475.45s21.11,1.36,32.34-25.54" transform="translate(847.08 -378.71)"/><path class="cls-2" d="M-778.59,477H-779a1.5,1.5,0,0,1-1.4-1.59,1.5,1.5,0,0,1,1.59-1.4c.83.05,20.21.9,30.87-24.61a1.49,1.49,0,0,1,2-.81,1.5,1.5,0,0,1,.8,2C-755.82,475.88-775.39,477-778.59,477Z" transform="translate(847.08 -378.71)"/></svg>