<svg id="圖層_4" data-name="圖層 4" xmlns="http://www.w3.org/2000/svg" viewBox="0 0 186.66 222.91"><defs><style>.cls-1{fill:#91b1ba;}.cls-2{fill:#7c695b;}.cls-3{fill:#6b7f84;}</style></defs><title>大象</title><path class="cls-1" d="M-653.4,352.64s31.14-52.9,89.87,3.28c0,0,58.72,21.53,17.36,63.67,0,0,5.11,20.13-12.77,19.2,0,0,43.92,63.67-7.66,76.31,0,0-72,6.56-85.78-8.43,0,0-40.34-11.7-16.85-44.47a430,430,0,0,1,25-43.55s-36.26-11.7-32.68-49.15c0,0-26.05-12.18-4.6-55.25,0,0-16.85-17.79,4.09-15,0,0,20.93-10.77,13.27,11.23C-664.13,310.5-675.87,339.53-653.4,352.64Z" transform="translate(691.48 -295.13)"/><path class="cls-2" d="M-600.23,518.05c-20.79,0-44.92-1.91-53-10.06-2.83-.89-19.15-6.56-23.72-19.75-2.76-8-.61-17,6.39-26.82a441.8,441.8,0,0,1,24-42c-7.39-3.05-34.51-16.51-32-49.05a26.59,26.59,0,0,1-11.13-14.19c-3.87-11.1-1.75-25.1,6.31-41.64-2.32-2.61-7.83-9.5-5.58-13.91,1.38-2.69,5-3.64,11.21-2.88,2.14-1,10.35-4.63,14.52-1,2.79,2.43,2.93,7.1.43,14.29-.48,1.18-10.59,27,8.84,39.59,3-4.47,14.15-18.95,33.32-21.61,17.92-2.48,37.38,6.14,57.83,25.64,3.17,1.22,27.83,11.24,32.17,30.49,2.47,11-2.23,22.76-14,34.95.52,2.62,1.67,10.74-2.59,15.92-2.09,2.55-5.13,4-9.06,4.28,5.31,8.37,21.94,37.1,14.14,57.6-3.55,9.34-11.69,15.63-24.2,18.7l-.22,0C-567.8,516.72-582.85,518.05-600.23,518.05Zm-81.18-217.58c-2.59,0-4.28.51-4.79,1.5-1.17,2.3,2.69,8,5.8,11.25a1.5,1.5,0,0,1,.25,1.7c-8,16.15-10.27,29.66-6.65,40.16,3.3,9.52,10.47,13,10.55,13.06a1.5,1.5,0,0,1,.85,1.5c-3.42,35.84,31.3,47.47,31.65,47.59a1.47,1.47,0,0,1,1,.93,1.46,1.46,0,0,1-.17,1.33,433.9,433.9,0,0,0-24.92,43.37,2.25,2.25,0,0,1-.12.21c-6.47,9-8.51,17.16-6.07,24.19,4.39,12.7,21.94,17.92,22.12,18a1.52,1.52,0,0,1,.68.43c12.89,14,81.24,8.24,84.44,8,11.43-2.83,18.83-8.49,22-16.83,8.46-22.25-15.09-56.81-15.33-57.15a1.5,1.5,0,0,1-.08-1.58,1.54,1.54,0,0,1,1.39-.77c4.32.22,7.48-.85,9.42-3.21,4.06-4.94,1.84-14,1.82-14.12a1.48,1.48,0,0,1,.38-1.42c11.41-11.62,16-22.64,13.76-32.76-4.17-18.55-30.31-28.36-30.57-28.45a1.58,1.58,0,0,1-.52-.33c-19.84-19-38.54-27.41-55.57-25.05-20.82,2.89-31.86,21.27-32,21.45a1.51,1.51,0,0,1-2,.54c-23.32-13.61-11.48-43.7-11.36-44,1.94-5.58,2.1-9.49.41-11-2.55-2.22-9.41.49-11.61,1.62a1.49,1.49,0,0,1-.88.15A29.09,29.09,0,0,0-681.41,300.47Z" transform="translate(691.48 -295.13)"/><path class="cls-1" d="M-558.94,438.79s-86.29-10.09-38.8-57.07" transform="translate(691.48 -295.13)"/><path class="cls-2" d="M-558.93,440.29h-.18c-1.88-.22-46-5.62-53.38-26.9-3.27-9.49,1.34-20.5,13.69-32.73a1.51,1.51,0,0,1,2.12,0,1.51,1.51,0,0,1,0,2.13c-11.46,11.34-15.83,21.3-13,29.62,6.72,19.51,50.45,24.84,50.89,24.89a1.49,1.49,0,0,1,1.31,1.66A1.5,1.5,0,0,1-558.93,440.29Z" transform="translate(691.48 -295.13)"/><path class="cls-1" d="M-576.3,367.42s15.83-7,30.13,52.17" transform="translate(691.48 -295.13)"/><path class="cls-2" d="M-546.17,421.09a1.5,1.5,0,0,1-1.46-1.15c-9.12-37.74-18.75-47.73-23.68-50.32-2.72-1.43-4.35-.84-4.42-.81a1.52,1.52,0,0,1-1.94-.82,1.48,1.48,0,0,1,.77-1.94c.27-.12,2.83-1.15,6.68.76,6.65,3.29,16.47,15.05,25.51,52.43a1.51,1.51,0,0,1-1.11,1.81A1.45,1.45,0,0,1-546.17,421.09Z" transform="translate(691.48 -295.13)"/><path class="cls-1" d="M-563.53,355.92s3.74,3.67,3.4,11.5" transform="translate(691.48 -295.13)"/><path class="cls-2" d="M-560.13,368.92h-.06a1.51,1.51,0,0,1-1.44-1.56c.31-7-2.83-10.24-3-10.38a1.51,1.51,0,0,1,0-2.12,1.5,1.5,0,0,1,2.11,0c.17.17,4.22,4.24,3.85,12.64A1.5,1.5,0,0,1-560.13,368.92Z" transform="translate(691.48 -295.13)"/><path class="cls-1" d="M-652.38,506.67a163.46,163.46,0,0,1,.72-24.93c1.21-11.52,3.33-27.15,13-34.93,6.38-5.12,11-3.83,16.62.85q7.14,5.94,14.26,11.9L-586,477.72" transform="translate(691.48 -295.13)"/><path class="cls-2" d="M-652.38,508.17a1.5,1.5,0,0,1-1.5-1.42,164,164,0,0,1,.73-25.17c1-9.56,2.86-27.35,13.58-35.94,7.83-6.29,13.53-3.3,18.52.87l36,30.06a1.49,1.49,0,0,1,.19,2.11,1.49,1.49,0,0,1-2.11.19l-36-30.06c-5.77-4.82-9.48-5-14.72-.83-9.73,7.81-11.51,24.79-12.47,33.92a161.68,161.68,0,0,0-.71,24.7,1.5,1.5,0,0,1-1.43,1.57Z" transform="translate(691.48 -295.13)"/><ellipse class="cls-3" cx="-640.18" cy="475.65" rx="33.59" ry="12.74" transform="translate(-213.66 -571.73) rotate(-72.79)"/><path class="cls-2" d="M-648.69,509.45a6.51,6.51,0,0,1-1.87-.28c-3.89-1.21-6.29-6-6.75-13.41-.43-6.95.82-15.59,3.53-24.33,5.82-18.79,16.35-31.66,24-29.3,3.89,1.2,6.28,6,6.75,13.4.43,7-.82,15.59-3.53,24.33h0C-631.94,497.16-641.29,509.45-648.69,509.45Zm17-64.61c-5.26,0-14,10.58-19.2,27.48-2.6,8.4-3.81,16.66-3.4,23.26.38,6,2.07,9.92,4.64,10.72C-644.6,507.87-635,497-629.45,479h0c2.61-8.4,3.81-16.66,3.4-23.26-.37-6-2.06-9.92-4.64-10.72A3.47,3.47,0,0,0-631.72,444.84Z" transform="translate(691.48 -295.13)"/><ellipse class="cls-3" cx="-665.69" cy="494" rx="3.77" ry="13.57" transform="translate(147.19 -621.16) rotate(-45)"/><path class="cls-2" d="M-657.14,505.46a9.46,9.46,0,0,1-4.39-1.48,38.85,38.85,0,0,1-7.89-6.25c-4-4-9.87-11.44-6.93-14.38s10.43,3,14.39,6.92,9.87,11.44,6.92,14.39h0A2.82,2.82,0,0,1-657.14,505.46Zm1-1.86h0Zm-18.06-18.07c0,1.12,1.78,5,6.86,10.08s9,6.84,10.08,6.86c0-1.11-1.78-5-6.86-10.07S-673,485.55-674.16,485.53Z" transform="translate(691.48 -295.13)"/><path class="cls-3" d="M-676.89,369.5a15.12,15.12,0,0,0,7.49,1" transform="translate(691.48 -295.13)"/><path class="cls-2" d="M-671.19,372.09a16.45,16.45,0,0,1-6.33-1.23,1.5,1.5,0,0,1-.73-2,1.49,1.49,0,0,1,2-.73,13.91,13.91,0,0,0,6.69.87,1.48,1.48,0,0,1,1.66,1.31,1.48,1.48,0,0,1-1.31,1.66A14.82,14.82,0,0,1-671.19,372.09Z" transform="translate(691.48 -295.13)"/><path class="cls-2" d="M-562.25,430.62c-4.36,0-9-1.52-12.61-2.73a1,1,0,0,1-.68-1.28,1,1,0,0,1,1.22-.65c5,1.64,11.62,3.84,16.52,1.89,3.06-1.22,3.8-3.79,2.57-8.86a126.52,126.52,0,0,0-9.83-28,1,1,0,0,1,.44-1.34,1,1,0,0,1,1.34.44,127.44,127.44,0,0,1,10,28.44c.59,2.41,2.15,8.83-3.77,11.19A14,14,0,0,1-562.25,430.62Z" transform="translate(691.48 -295.13)"/><path class="cls-2" d="M-684.89,336.42H-689a1,1,0,0,1-1-1,1,1,0,0,1,1-1h4.09a1,1,0,0,1,1,1A1,1,0,0,1-684.89,336.42Z" transform="translate(691.48 -295.13)"/><path class="cls-2" d="M-685.23,343.74h-.09l-3.92-.34a1,1,0,0,1-.91-1.09,1,1,0,0,1,1.09-.91l3.91.34a1,1,0,0,1,.91,1.09A1,1,0,0,1-685.23,343.74Z" transform="translate(691.48 -295.13)"/><path class="cls-2" d="M-684.55,351.06l-.2,0-4.25-.85a1,1,0,0,1-.79-1.18,1,1,0,0,1,1.18-.78l4.25.85a1,1,0,0,1,.79,1.18A1,1,0,0,1-684.55,351.06Z" transform="translate(691.48 -295.13)"/><ellipse class="cls-2" cx="-622.96" cy="357.97" rx="6.47" ry="4.34" transform="translate(145.53 -651.5) rotate(-53.96)"/><path class="cls-2" d="M-546.51,505.77a1.51,1.51,0,0,1-1.49-1.3,1.5,1.5,0,0,1,1.3-1.68c1.54-.21,37.7-5.45,34.48-47.54L-523,444.75a1.5,1.5,0,0,1,0-2.12,1.5,1.5,0,0,1,2.12,0l11.24,10.89a1.52,1.52,0,0,1,.45.95c3.82,45.5-36.64,51.27-37.05,51.32Z" transform="translate(691.48 -295.13)"/><path class="cls-2" d="M-510.43,457.09a1.5,1.5,0,0,1-1.46-1.17l-2.38-10.55a1.49,1.49,0,0,1,1.13-1.79,1.49,1.49,0,0,1,1.79,1.13l2.39,10.55a1.52,1.52,0,0,1-1.13,1.8Z" transform="translate(691.48 -295.13)"/><path class="cls-2" d="M-510.06,456.45a1.51,1.51,0,0,1-.59-.11,1.51,1.51,0,0,1-.8-2l3.75-8.85a1.51,1.51,0,0,1,2-.8,1.5,1.5,0,0,1,.79,2l-3.74,8.85A1.5,1.5,0,0,1-510.06,456.45Z" transform="translate(691.48 -295.13)"/></svg>