<svg id="圖層_4" data-name="圖層 4" xmlns="http://www.w3.org/2000/svg" viewBox="0 0 151.71 185.49"><defs><style>.cls-1{fill:#b2e2aa;}.cls-2{fill:#7c695b;}.cls-3{fill:#d1a3b3;}.cls-4{fill:#8e7866;}</style></defs><title>青蛙</title><path class="cls-1" d="M-1842.83,438.73a46.6,46.6,0,0,0,10.92-34.36,46.58,46.58,0,0,0-17.19-31.69,25.35,25.35,0,0,0,2.63-24.86,23.29,23.29,0,0,0-20.82-13.43c-8.73.1-17.18,6.08-19.85,14.4-.42,1.3-.85,2.82-2.1,3.37a4.53,4.53,0,0,1-2.86-.09,77.07,77.07,0,0,0-33.23-.71c-1.17-10.9-10.9-20.15-21.83-21.06s-21.91,6.39-25.6,16.71,0,22.75,8.6,29.59a40.8,40.8,0,0,0-7.82,31.46,40.81,40.81,0,0,0,17.88,27A80.67,80.67,0,0,0-1966.25,473c-.07,1.22-9.77,3.46-10.15,7.06-.42,4,7.43,5.5,10.41,5.85a5.38,5.38,0,0,0-.16,8c2.37,1.93,6.56.8,7.48-2.11,1.24,3,4.66,5.1,7.77,4.24s4.87-5.17,2.83-7.66a44.83,44.83,0,0,0,11.54,5.76c-1.41,2.43,1.85,5.19,4.66,5.12s5.51-1.55,8.31-1.26a21.69,21.69,0,0,0,.94,7.92,3.15,3.15,0,0,0,1.73,2.28c1.07.34,2.14-.45,2.94-1.23a24.36,24.36,0,0,0,4.39-5.8c1.8,3.06,4,6.27,7.41,7.29s7.9-1.7,7.15-5.17l23-.4c-2.17,1.47-.31,5.31,2.3,5.59s4.9-1.61,6.72-3.5c-.12,3.26,1.67,6.83,4.82,7.66s6.89-2.53,5.61-5.53a9.92,9.92,0,0,0,7.45,3.51c2.83-.14,5.62-2.36,5.75-5.19.11-2.42-1.62-4.74-1.16-7.12a8.22,8.22,0,0,1,2-3.52c8.86-10.7,17.33-24.11,14-37.6C-1830.38,449.4-1836.08,443-1842.83,438.73Z" transform="translate(1977.92 -328.72)"/><path class="cls-2" d="M-1861.14,514.21a5.78,5.78,0,0,1-1.37-.17,8.24,8.24,0,0,1-5.56-6.07,8.13,8.13,0,0,1-5.76,1.95,5.46,5.46,0,0,1-4.45-4.08,4.6,4.6,0,0,1-.13-1.46l-19.06.33a5.71,5.71,0,0,1-1.85,3.36,7.81,7.81,0,0,1-7.26,1.78c-3.05-.92-5.2-3.23-7-5.87a25.64,25.64,0,0,1-3.35,4c-1.53,1.5-3,2-4.43,1.6-1.87-.58-2.51-2.61-2.72-3.27a23,23,0,0,1-1.06-6.86,20.09,20.09,0,0,0-2.69.55,18.76,18.76,0,0,1-4,.7,6.92,6.92,0,0,1-5.91-3.2,4.22,4.22,0,0,1-.62-2.47,46.59,46.59,0,0,1-7.37-3.44,7,7,0,0,1-.28,1.3,6.75,6.75,0,0,1-4.49,4.53,8.14,8.14,0,0,1-8.22-2.9,6.51,6.51,0,0,1-2.61,1.5,6.24,6.24,0,0,1-5.76-1,6.45,6.45,0,0,1-2.26-5.06,7.27,7.27,0,0,1,.67-3c-3.88-.76-9.68-2.64-9.21-7.09.33-3.14,4.56-5,8-6.49.75-.33,1.73-.76,2.22-1a81.93,81.93,0,0,1,11.58-36.81,42.5,42.5,0,0,1-17.33-27.22,42.55,42.55,0,0,1,7.25-31.48c-8.32-7.44-11.67-19.95-8-30.32,4-11.06,15.62-18.67,27.14-17.71a26.11,26.11,0,0,1,23,20.79,78.79,78.79,0,0,1,32.33,1,3.63,3.63,0,0,0,1.9.17c.57-.24.91-1.31,1.21-2.25l.06-.2c2.84-8.84,11.78-15.33,21.27-15.44,9.2-.12,18.28,5.78,22.19,14.3a26.69,26.69,0,0,1-2,25.2,48.51,48.51,0,0,1,16.68,31.84,48.52,48.52,0,0,1-10.2,34.17c7,4.85,11.86,11.33,13.61,18.38,3.71,14.94-6.38,29.37-14.29,38.92a7.28,7.28,0,0,0-1.72,2.84,6.79,6.79,0,0,0,.5,3.11,11.26,11.26,0,0,1,.69,3.8c-.16,3.47-3.38,6.44-7.18,6.61a10.16,10.16,0,0,1-6.14-1.85,6.09,6.09,0,0,1-1,1.66A6.7,6.7,0,0,1-1861.14,514.21Zm-5.81-10.78a1.52,1.52,0,0,1,.59.12,1.5,1.5,0,0,1,.91,1.44c-.1,2.52,1.26,5.5,3.71,6.15a3.49,3.49,0,0,0,3.3-1.23,2.25,2.25,0,0,0,.54-2.26,1.49,1.49,0,0,1,.57-1.85,1.49,1.49,0,0,1,1.91.24,8.4,8.4,0,0,0,6.28,3c2-.09,4.22-1.66,4.32-3.76a8.48,8.48,0,0,0-.56-2.77A9.38,9.38,0,0,1-1846,498a9.59,9.59,0,0,1,2.36-4.19c7.5-9.05,17.07-22.66,13.69-36.28-1.68-6.77-6.55-13-13.72-17.51a1.46,1.46,0,0,1-.68-1.05,1.49,1.49,0,0,1,.34-1.2,45.35,45.35,0,0,0,10.57-33.24A45.4,45.4,0,0,0-1850,373.85a1.49,1.49,0,0,1-.28-2.05,23.73,23.73,0,0,0,2.48-23.36,21.86,21.86,0,0,0-19.23-12.55h-.21a20,20,0,0,0-18.44,13.36l-.07.19c-.44,1.39-1,3.3-2.86,4.09a5.79,5.79,0,0,1-3.82,0,75.55,75.55,0,0,0-32.58-.69,1.55,1.55,0,0,1-1.18-.26,1.55,1.55,0,0,1-.61-1.05c-1.07-10-10.24-18.88-20.45-19.73s-20.56,5.91-24.07,15.73c-3.45,9.65,0,21.39,8.13,27.91a1.5,1.5,0,0,1,.25,2.09,39.37,39.37,0,0,0-7.53,30.28,39.39,39.39,0,0,0,17.22,26,1.5,1.5,0,0,1,.45,2.06,78.89,78.89,0,0,0-11.92,37.16c-.09,1.37-1.39,1.94-4,3.08-2,.86-6,2.65-6.18,4.05-.21,2,4.53,3.67,9.09,4.2a1.49,1.49,0,0,1,1.27,1.07,1.49,1.49,0,0,1-.5,1.58,3.8,3.8,0,0,0-1.3,3,3.46,3.46,0,0,0,1.15,2.71,3.29,3.29,0,0,0,3,.46,3,3,0,0,0,2.09-1.85,1.51,1.51,0,0,1,1.37-1.05,1.49,1.49,0,0,1,1.45.93c1,2.44,3.76,4,6,3.36a3.79,3.79,0,0,0,2.43-2.55,2.93,2.93,0,0,0-.36-2.71,1.5,1.5,0,0,1,0-2,1.5,1.5,0,0,1,2-.21,44,44,0,0,0,11.16,5.57,1.49,1.49,0,0,1,.93.89,1.47,1.47,0,0,1-.1,1.29,1,1,0,0,0,.07,1.13,4,4,0,0,0,3.18,1.73h.07a15.78,15.78,0,0,0,3.38-.61,14.65,14.65,0,0,1,5.12-.65,1.5,1.5,0,0,1,1.34,1.6,20.21,20.21,0,0,0,.88,7.37c.36,1.13.68,1.28.75,1.3s.63-.08,1.44-.87a23.32,23.32,0,0,0,4.13-5.45,1.51,1.51,0,0,1,1.29-.78,1.58,1.58,0,0,1,1.32.74c1.71,2.93,3.69,5.76,6.54,6.61a4.8,4.8,0,0,0,4.36-1.11,2.44,2.44,0,0,0,.9-2.31,1.48,1.48,0,0,1,.29-1.25,1.47,1.47,0,0,1,1.15-.56l23-.4a1.51,1.51,0,0,1,1.46,1,1.49,1.49,0,0,1-.59,1.69c-.1.08-.43.3-.24,1a2.48,2.48,0,0,0,1.85,1.82c1.59.18,3.33-.8,5.49-3A1.5,1.5,0,0,1-1866.95,503.43Z" transform="translate(1977.92 -328.72)"/><path class="cls-1" d="M-1947.87,488.44s8.85-14.46,13.7-28.25" transform="translate(1977.92 -328.72)"/><path class="cls-2" d="M-1947.87,489.94a1.52,1.52,0,0,1-.79-.22,1.5,1.5,0,0,1-.49-2.06c.09-.14,8.82-14.5,13.56-28a1.51,1.51,0,0,1,1.92-.92,1.5,1.5,0,0,1,.91,1.92c-4.84,13.77-13.74,28.39-13.83,28.54A1.51,1.51,0,0,1-1947.87,489.94Z" transform="translate(1977.92 -328.72)"/><path class="cls-1" d="M-1936.38,494.32l8.59-3s1-15.58,6.9-24.26" transform="translate(1977.92 -328.72)"/><path class="cls-2" d="M-1936.38,495.82a1.5,1.5,0,0,1-1.42-1,1.5,1.5,0,0,1,.93-1.91l7.67-2.66c.33-3.65,1.84-16.27,7.06-24a1.5,1.5,0,0,1,2.09-.4,1.51,1.51,0,0,1,.4,2.08c-5.57,8.24-6.63,23.36-6.64,23.52a1.49,1.49,0,0,1-1,1.31l-8.59,3A1.41,1.41,0,0,1-1936.38,495.82Z" transform="translate(1977.92 -328.72)"/><path class="cls-1" d="M-1898.85,503.25s-3.92-21.36-1.11-27.74" transform="translate(1977.92 -328.72)"/><path class="cls-2" d="M-1898.85,504.75a1.51,1.51,0,0,1-1.48-1.23c-.41-2.23-3.91-22-1-28.62a1.5,1.5,0,0,1,2-.77,1.52,1.52,0,0,1,.77,2c-2.16,4.89.14,21.05,1.2,26.87a1.5,1.5,0,0,1-1.2,1.75Z" transform="translate(1977.92 -328.72)"/><path class="cls-1" d="M-1876.13,502.49s-6.21-20.34,6-29" transform="translate(1977.92 -328.72)"/><path class="cls-2" d="M-1876.13,504a1.5,1.5,0,0,1-1.43-1.07c-.27-.87-6.38-21.48,6.61-30.68a1.49,1.49,0,0,1,2.09.36,1.5,1.5,0,0,1-.36,2.09c-11.22,7.94-5.53,27.16-5.47,27.36a1.5,1.5,0,0,1-1,1.87A1.68,1.68,0,0,1-1876.13,504Z" transform="translate(1977.92 -328.72)"/><ellipse class="cls-2" cx="25.09" cy="25.89" rx="4.34" ry="6.47"/><ellipse class="cls-2" cx="113.43" cy="25.89" rx="4.34" ry="6.47"/><path class="cls-2" d="M-1910.19,386.79a1.47,1.47,0,0,1-.79-.22c-6.76-4.19-32.43-6.23-32.69-6.25a1.49,1.49,0,0,1-1.38-1.61,1.5,1.5,0,0,1,1.61-1.38c1.06.08,25.38,2,33.44,6.35,3.7-1.06,23.07-6.35,40.32-6.35a1.5,1.5,0,0,1,1.5,1.5,1.5,1.5,0,0,1-1.5,1.5c-18.63,0-39.87,6.34-40.08,6.4A1.59,1.59,0,0,1-1910.19,386.79Z" transform="translate(1977.92 -328.72)"/><circle class="cls-2" cx="60.6" cy="41.93" r="1.87"/><circle class="cls-2" cx="73.37" cy="41.93" r="1.87"/><path class="cls-2" d="M-1954.1,435.09" transform="translate(1977.92 -328.72)"/><path class="cls-2" d="M-1940.34,440.28h-.14a55.27,55.27,0,0,1-14.21-3.81,1.5,1.5,0,0,1-.78-2,1.5,1.5,0,0,1,2-.79,53.07,53.07,0,0,0,13.3,3.58,1.5,1.5,0,0,1,1.35,1.64A1.49,1.49,0,0,1-1940.34,440.28Z" transform="translate(1977.92 -328.72)"/><path class="cls-2" d="M-1860.81,445.52a1.51,1.51,0,0,1-1.5-1.43,1.5,1.5,0,0,1,1.43-1.57,39.16,39.16,0,0,0,17.25-5,1.49,1.49,0,0,1,2.07.46A1.5,1.5,0,0,1-1842,440a41.62,41.62,0,0,1-18.72,5.52Z" transform="translate(1977.92 -328.72)"/><ellipse class="cls-3" cx="-1854.89" cy="387.39" rx="10.21" ry="9.15" transform="translate(-133.74 -1818.77) rotate(-85.99)"/><path class="cls-4" d="M-1855,399.1c-.24,0-.47,0-.7,0-5.86-.41-10.26-6-9.81-12.42h0c.45-6.45,5.59-11.35,11.45-10.94a10.08,10.08,0,0,1,7.32,4,12.3,12.3,0,0,1,2.49,8.42,12.25,12.25,0,0,1-3.64,8A10.12,10.12,0,0,1-1855,399.1Zm-7.52-12.24c-.33,4.79,2.82,8.93,7,9.22A7.18,7.18,0,0,0-1850,394a9.26,9.26,0,0,0,2.72-6,9.25,9.25,0,0,0-1.85-6.37,7.18,7.18,0,0,0-5.17-2.86c-4.22-.3-7.91,3.36-8.25,8.16Z" transform="translate(1977.92 -328.72)"/><ellipse class="cls-3" cx="-1956" cy="389.94" rx="10.21" ry="9.15" transform="translate(-230.32 -1917.25) rotate(-85.99)"/><path class="cls-4" d="M-1956.12,401.65l-.7,0c-5.86-.41-10.26-6-9.8-12.43h0c.45-6.44,5.59-11.35,11.44-10.94a10.15,10.15,0,0,1,7.33,4,12.3,12.3,0,0,1,2.48,8.42,12.31,12.31,0,0,1-3.63,8A10.2,10.2,0,0,1-1956.12,401.65Zm-7.51-12.24c-.34,4.79,2.81,8.93,7,9.23a7.19,7.19,0,0,0,5.52-2.12,9.3,9.3,0,0,0,2.73-6,9.34,9.34,0,0,0-1.86-6.37,7.16,7.16,0,0,0-5.17-2.86c-4.21-.3-7.91,3.37-8.24,8.16Z" transform="translate(1977.92 -328.72)"/></svg>